<svg width="82" height="82" viewBox="0 0 82 82" fill="none" xmlns="http://www.w3.org/2000/svg">
<path d="M22.094 56.172L18.608 66H15.612L12.126 56.172H14.674L17.11 63.592L19.56 56.172H22.094ZM29.1146 60.092V62.08H22.9546V60.092H29.1146ZM35.9757 58.104C36.8903 58.104 37.6183 58.4027 38.1597 59C38.7103 59.588 38.9857 60.4 38.9857 61.436V66H36.6057V61.758C36.6057 61.2353 36.4703 60.8293 36.1997 60.54C35.929 60.2507 35.565 60.106 35.1077 60.106C34.6503 60.106 34.2863 60.2507 34.0157 60.54C33.745 60.8293 33.6097 61.2353 33.6097 61.758V66H31.2157V58.188H33.6097V59.224C33.8523 58.8787 34.179 58.608 34.5897 58.412C35.0003 58.2067 35.4623 58.104 35.9757 58.104ZM44.2053 66.112C43.4399 66.112 42.7493 65.9487 42.1333 65.622C41.5266 65.2953 41.0459 64.8287 40.6913 64.222C40.3459 63.6153 40.1733 62.906 40.1733 62.094C40.1733 61.2913 40.3506 60.5867 40.7052 59.98C41.0599 59.364 41.5453 58.8927 42.1613 58.566C42.7773 58.2393 43.4679 58.076 44.2333 58.076C44.9986 58.076 45.6893 58.2393 46.3053 58.566C46.9213 58.8927 47.4066 59.364 47.7613 59.98C48.1159 60.5867 48.2933 61.2913 48.2933 62.094C48.2933 62.8967 48.1113 63.606 47.7473 64.222C47.3926 64.8287 46.9026 65.2953 46.2773 65.622C45.6613 65.9487 44.9706 66.112 44.2053 66.112ZM44.2053 64.04C44.6626 64.04 45.0499 63.872 45.3673 63.536C45.6939 63.2 45.8573 62.7193 45.8573 62.094C45.8573 61.4687 45.6986 60.988 45.3813 60.652C45.0733 60.316 44.6906 60.148 44.2333 60.148C43.7666 60.148 43.3793 60.316 43.0713 60.652C42.7633 60.9787 42.6093 61.4593 42.6093 62.094C42.6093 62.7193 42.7586 63.2 43.0573 63.536C43.3653 63.872 43.7479 64.04 44.2053 64.04ZM53.9173 63.97V66H52.6993C51.8313 66 51.1546 65.79 50.6693 65.37C50.184 64.9407 49.9413 64.2453 49.9413 63.284V60.176H48.9893V58.188H49.9413V56.284H52.3353V58.188H53.9033V60.176H52.3353V63.312C52.3353 63.5453 52.3913 63.7133 52.5033 63.816C52.6153 63.9187 52.802 63.97 53.0633 63.97H53.9173ZM62.6148 61.968C62.6148 62.192 62.6008 62.4253 62.5728 62.668H57.1548C57.1921 63.1533 57.3461 63.5267 57.6168 63.788C57.8968 64.04 58.2375 64.166 58.6388 64.166C59.2361 64.166 59.6515 63.914 59.8848 63.41H62.4328C62.3021 63.9233 62.0641 64.3853 61.7188 64.796C61.3828 65.2067 60.9581 65.5287 60.4448 65.762C59.9315 65.9953 59.3575 66.112 58.7228 66.112C57.9575 66.112 57.2761 65.9487 56.6788 65.622C56.0815 65.2953 55.6148 64.8287 55.2788 64.222C54.9428 63.6153 54.7748 62.906 54.7748 62.094C54.7748 61.282 54.9381 60.5727 55.2648 59.966C55.6008 59.3593 56.0675 58.8927 56.6648 58.566C57.2621 58.2393 57.9481 58.076 58.7228 58.076C59.4788 58.076 60.1508 58.2347 60.7388 58.552C61.3268 58.8693 61.7841 59.322 62.1108 59.91C62.4468 60.498 62.6148 61.184 62.6148 61.968ZM60.1648 61.338C60.1648 60.9273 60.0248 60.6007 59.7448 60.358C59.4648 60.1153 59.1148 59.994 58.6948 59.994C58.2935 59.994 57.9528 60.1107 57.6728 60.344C57.4021 60.5773 57.2341 60.9087 57.1688 61.338H60.1648ZM67.0558 66.112C66.3744 66.112 65.7678 65.9953 65.2358 65.762C64.7038 65.5287 64.2838 65.2113 63.9758 64.81C63.6678 64.3993 63.4951 63.942 63.4578 63.438H65.8238C65.8518 63.7087 65.9778 63.928 66.2018 64.096C66.4258 64.264 66.7011 64.348 67.0278 64.348C67.3264 64.348 67.5551 64.292 67.7138 64.18C67.8818 64.0587 67.9658 63.9047 67.9658 63.718C67.9658 63.494 67.8491 63.3307 67.6158 63.228C67.3824 63.116 67.0044 62.9947 66.4818 62.864C65.9218 62.7333 65.4551 62.598 65.0818 62.458C64.7084 62.3087 64.3864 62.08 64.1158 61.772C63.8451 61.4547 63.7098 61.03 63.7098 60.498C63.7098 60.05 63.8311 59.644 64.0738 59.28C64.3258 58.9067 64.6898 58.6127 65.1658 58.398C65.6511 58.1833 66.2251 58.076 66.8878 58.076C67.8678 58.076 68.6378 58.3187 69.1978 58.804C69.7671 59.2893 70.0938 59.9333 70.1778 60.736H67.9658C67.9284 60.4653 67.8071 60.2507 67.6018 60.092C67.4058 59.9333 67.1444 59.854 66.8178 59.854C66.5378 59.854 66.3231 59.91 66.1738 60.022C66.0244 60.1247 65.9498 60.2693 65.9498 60.456C65.9498 60.68 66.0664 60.848 66.2998 60.96C66.5424 61.072 66.9158 61.184 67.4198 61.296C67.9984 61.4453 68.4698 61.5947 68.8338 61.744C69.1978 61.884 69.5151 62.1173 69.7858 62.444C70.0658 62.7613 70.2104 63.1907 70.2198 63.732C70.2198 64.1893 70.0891 64.6 69.8278 64.964C69.5758 65.3187 69.2071 65.5987 68.7218 65.804C68.2458 66.0093 67.6904 66.112 67.0558 66.112Z" fill="black"/>
<path d="M3 13C3 7.47715 7.47715 3 13 3H69C74.5228 3 79 7.47715 79 13V79H3V13Z" stroke="black" stroke-width="5" stroke-linejoin="round"/>
<rect x="5" y="5" width="72" height="31" fill="black"/>
</svg>
